<svg preserveAspectRatio="none" overflow="visible" style="display: block;" width="50.5095" height="16.8429" viewBox="0 0 50.5095 16.8429" fill="none" xmlns="http://www.w3.org/2000/svg">
<g id="Mada">
<path id="Vector" d="M21.3661 9.71242H0V16.8302H21.3661V9.71242Z" fill="#84B740"/>
<path id="Vector_2" d="M21.3662 1.5009e-05H0.000169325V7.12415H21.3662V1.5009e-05Z" fill="#259BD6"/>
<path id="Vector_3" d="M42.7323 15.3838L42.6371 15.4028C42.3072 15.4663 42.1867 15.4917 41.9456 15.4917C41.3874 15.4917 40.7276 15.2062 40.7276 13.8613C40.7276 13.1698 40.8418 12.25 41.8822 12.25H41.8885C42.0662 12.2626 42.2692 12.2817 42.6498 12.3959L42.7323 12.4212V15.3838ZM42.9035 8.67837L42.7323 8.71009V11.1969L42.58 11.1525L42.5356 11.1398C42.3643 11.089 41.971 10.9748 41.5904 10.9748C39.5096 10.9748 39.0719 12.5481 39.0719 13.8676C39.0719 15.6756 40.0869 16.716 41.8568 16.716C42.6054 16.716 43.1573 16.6399 43.7155 16.4559C44.2294 16.291 44.4134 16.0563 44.4134 15.5551V8.41827C43.9186 8.50708 43.4047 8.5959 42.9035 8.67837Z" fill="#27292D"/>
<path id="Vector_4" d="M48.9174 15.4282L48.8286 15.4536L48.5114 15.5361C48.2132 15.6122 47.9468 15.6566 47.7438 15.6566C47.2553 15.6566 46.9635 15.4155 46.9635 15.0032C46.9635 14.7367 47.084 14.2863 47.8834 14.2863H48.9174V15.4282ZM48.1879 10.9431C47.5471 10.9431 46.8874 11.0573 46.069 11.3111L45.5361 11.4697L45.7138 12.675L46.234 12.5037C46.7795 12.3261 47.4583 12.2119 47.9658 12.2119C48.1942 12.2119 48.892 12.2119 48.892 12.9668V13.2967H47.9214C46.1515 13.2967 45.3331 13.8613 45.3331 15.073C45.3331 16.107 46.0881 16.7287 47.3568 16.7287C47.7501 16.7287 48.2957 16.6526 48.7652 16.5384L48.7905 16.5321L48.8159 16.5384L48.9745 16.5638C49.4693 16.6526 49.9832 16.7414 50.4843 16.8366V12.878C50.4843 11.5965 49.7104 10.9431 48.1879 10.9431Z" fill="#27292D"/>
<path id="Vector_5" d="M36.5909 15.4282L36.5021 15.4536L36.1849 15.5361C35.8867 15.6122 35.6266 15.6566 35.4173 15.6566C34.9288 15.6566 34.637 15.4155 34.637 15.0032C34.637 14.7367 34.7575 14.2863 35.5505 14.2863H36.5845V15.4282H36.5909ZM35.8677 10.9431C35.2206 10.9431 34.5672 11.0573 33.7488 11.3111L33.216 11.4697L33.3936 12.675L33.9138 12.5037C34.4594 12.3261 35.1381 12.2119 35.6457 12.2119C35.874 12.2119 36.5719 12.2119 36.5719 12.9668V13.2967H35.6012C33.8313 13.2967 33.0066 13.8613 33.0066 15.073C33.0066 16.107 33.7615 16.7287 35.0366 16.7287C35.43 16.7287 35.9755 16.6526 36.445 16.5384L36.4704 16.5321L36.4957 16.5384L36.648 16.5638C37.1491 16.6526 37.6567 16.7414 38.1578 16.8429V12.8843C38.1642 11.5902 37.3902 10.9431 35.8677 10.9431Z" fill="#27292D"/>
<path id="Vector_6" d="M29.9113 10.9558C29.1057 10.9558 28.4396 11.2223 28.1922 11.3364L28.1287 11.3682L28.0716 11.3238C27.7291 11.0763 27.2279 10.9495 26.5301 10.9495C25.9147 10.9495 25.3374 11.0383 24.7094 11.2223C24.1702 11.3872 23.9608 11.6473 23.9608 12.1358V16.6589H25.6483V12.4783L25.7307 12.453C26.0733 12.3388 26.2763 12.3197 26.473 12.3197C26.9615 12.3197 27.2089 12.5798 27.2089 13.0873V16.6653H28.8709V13.0176C28.8709 12.8019 28.8265 12.675 28.8202 12.6496L28.7631 12.5418L28.8773 12.491C29.131 12.3768 29.4102 12.3197 29.702 12.3197C30.0382 12.3197 30.4379 12.453 30.4379 13.0873V16.6653H32.0936V12.9224C32.0936 11.5965 31.3831 10.9558 29.9113 10.9558Z" fill="#27292D"/>
<path id="Vector_7" d="M47.6738 4.64369C47.4264 4.64369 47.014 4.61832 46.6905 4.55488L46.5953 4.53585V2.09347C46.5953 1.89047 46.5573 1.76359 46.5509 1.74456L46.5002 1.64306L46.608 1.59865C46.6334 1.58596 46.6588 1.57962 46.6905 1.56693L46.7095 1.55424C46.7476 1.54155 46.7857 1.52887 46.8237 1.51618C46.8428 1.50984 46.8554 1.50349 46.8681 1.50349C47.2424 1.40199 47.585 1.41468 47.7372 1.40199H47.7436C48.7776 1.40199 48.8982 2.32185 48.8982 3.01333C48.8918 4.35822 48.2257 4.64369 47.6738 4.64369ZM47.6675 0C47.6548 0 47.6357 0 47.623 0C46.6524 0 45.6565 0.266443 45.3012 0.786638C45.1109 1.04039 45.003 1.35758 44.9967 1.73187V4.25037C44.9967 4.46607 44.9523 4.54854 44.9459 4.56757L44.8889 4.67541H41.8248V2.92451H41.8184C41.7804 1.07845 40.6892 0.0634384 39.1096 0.0634384H38.9256H37.5681C37.5046 0.513851 37.4539 0.831044 37.3904 1.28146H38.9256C39.7313 1.28146 40.1563 1.96659 40.1563 3.01967V4.78326L40.0485 4.72616C40.0295 4.71982 39.8963 4.67541 39.6869 4.67541H37.0352C36.9844 5.01164 36.921 5.44936 36.8512 5.88709H45.003C45.2822 5.82999 45.6057 5.77924 45.8848 5.73484C46.2972 5.93784 47.0648 6.04568 47.5913 6.04568C49.3613 6.04568 50.5095 4.85938 50.5095 3.03236C50.5032 1.22436 49.393 0.0380631 47.6675 0Z" fill="#27292D"/>
<path id="Vector_8" d="M33.3751 6.62929H33.4512C35.2211 6.62929 36.0458 6.04566 36.0458 4.60561C36.0458 3.57156 35.2909 2.74686 34.0221 2.74686H32.3918C31.9033 2.74686 31.6115 2.46773 31.6115 1.99829C31.6115 1.68109 31.732 1.28778 32.5313 1.28778H36.0966C36.1727 0.824677 36.2108 0.532859 36.2806 0.0697585H32.5757C30.8502 0.0697585 29.9811 0.792956 29.9811 1.99829C29.9811 3.19093 30.736 3.81263 32.0048 3.81263H33.6352C34.1236 3.81263 34.4155 4.1996 34.4155 4.60561C34.4155 4.87205 34.2949 5.42396 33.502 5.42396H33.2292L28.0082 5.41128H27.0566C26.2509 5.41128 25.6863 4.95452 25.6863 3.8951V3.16556C25.6863 2.06173 26.1241 1.37659 27.0566 1.37659H28.6045C28.6743 0.907146 28.7187 0.608985 28.7821 0.164916H26.8536H26.6696C25.09 0.164916 23.9989 1.22434 23.9608 3.0704V3.14018V3.8951C23.9989 5.74116 25.09 6.62295 26.6696 6.62295H26.8536H28.2112L31.0405 6.62929H32.728H33.3751Z" fill="#27292D"/>
</g>
</svg>
