<svg preserveAspectRatio="none" overflow="visible" style="display: block;" width="20.5" height="20.5" viewBox="0 0 20.5 20.5" fill="none" xmlns="http://www.w3.org/2000/svg">
<g id="elements">
<g id="Icon">
<path d="M14.8029 7.7568C15.0828 7.45146 15.0621 6.97703 14.7568 6.69714C14.4515 6.41724 13.977 6.43787 13.6971 6.74321L8.72644 12.1658L6.78033 10.2197C6.48744 9.92678 6.01256 9.92678 5.71967 10.2197C5.42678 10.5126 5.42678 10.9874 5.71967 11.2803L8.21967 13.7803C8.36432 13.925 8.56178 14.0043 8.76629 13.9998C8.97081 13.9954 9.16464 13.9076 9.30287 13.7568L14.8029 7.7568Z" fill="#1B8354"/>
<path fill-rule="evenodd" clip-rule="evenodd" d="M10.3072 2.29058e-07H10.1928C8.00212 -1.31257e-05 6.28144 -2.37375e-05 4.93802 0.180594C3.56137 0.365681 2.46911 0.752715 1.61091 1.61091C0.752715 2.46911 0.365681 3.56137 0.180594 4.93802C-2.37375e-05 6.28144 -1.31257e-05 8.00212 2.29058e-07 10.1928V10.3072C-1.31257e-05 12.4979 -2.37375e-05 14.2186 0.180594 15.562C0.365681 16.9386 0.752715 18.0309 1.61091 18.8891C2.46911 19.7473 3.56137 20.1343 4.93802 20.3194C6.28144 20.5 8.0021 20.5 10.1928 20.5H10.3072C12.4979 20.5 14.2186 20.5 15.562 20.3194C16.9386 20.1343 18.0309 19.7473 18.8891 18.8891C19.7473 18.0309 20.1343 16.9386 20.3194 15.562C20.5 14.2186 20.5 12.4979 20.5 10.3072V10.1928C20.5 8.00214 20.5 6.28144 20.3194 4.93802C20.1343 3.56137 19.7473 2.46911 18.8891 1.61091C18.0309 0.752715 16.9386 0.365681 15.562 0.180594C14.2186 -2.37375e-05 12.4979 -1.31257e-05 10.3072 2.29058e-07ZM2.67157 2.67157C3.20462 2.13853 3.92757 1.82994 5.1379 1.66722C6.36979 1.50159 7.98963 1.5 10.25 1.5C12.5104 1.5 14.1302 1.50159 15.3621 1.66722C16.5724 1.82994 17.2954 2.13853 17.8284 2.67157C18.3615 3.20462 18.6701 3.92757 18.8328 5.1379C18.9984 6.36979 19 7.98963 19 10.25C19 12.5104 18.9984 14.1302 18.8328 15.3621C18.6701 16.5724 18.3615 17.2954 17.8284 17.8284C17.2954 18.3615 16.5724 18.6701 15.3621 18.8328C14.1302 18.9984 12.5104 19 10.25 19C7.98963 19 6.36979 18.9984 5.1379 18.8328C3.92757 18.6701 3.20462 18.3615 2.67157 17.8284C2.13853 17.2954 1.82994 16.5724 1.66722 15.3621C1.50159 14.1302 1.5 12.5104 1.5 10.25C1.5 7.98963 1.50159 6.36979 1.66722 5.1379C1.82994 3.92757 2.13853 3.20462 2.67157 2.67157Z" fill="#1B8354"/>
</g>
</g>
</svg>
