<svg preserveAspectRatio="none" overflow="visible" style="display: block;" width="17.5001" height="17.5" viewBox="0 0 17.5001 17.5" fill="none" xmlns="http://www.w3.org/2000/svg">
<g id="elements">
<g id="Icon">
<path d="M16.2175 1.34755C14.4911 -0.449183 11.6792 -0.449181 9.95284 1.34755L9.23932 2.09015C8.95233 2.38883 8.96181 2.86361 9.26049 3.1506C9.55918 3.43758 10.034 3.4281 10.3209 3.12942L11.0345 2.38682C12.1706 1.20439 13.9997 1.20439 15.1359 2.38682C16.2882 3.58611 16.2882 5.54249 15.1359 6.74178L11.8965 10.1132C11.7168 10.3002 11.5211 10.4565 11.315 10.5832C10.2069 11.2643 8.75561 11.1129 7.79508 10.1132C7.63883 9.95057 7.50393 9.77436 7.39021 9.58812C7.17434 9.2346 6.71276 9.12301 6.35925 9.33888C6.00573 9.55475 5.89414 10.0163 6.11001 10.3698C6.27954 10.6475 6.48075 10.9103 6.71346 11.1525C8.16796 12.6662 10.3977 12.9077 12.1004 11.8611C12.4151 11.6677 12.7103 11.4311 12.9781 11.1525L16.2175 7.78105C17.9277 6.00119 17.9276 3.12741 16.2175 1.34755Z" fill="#067647"/>
<path d="M10.7868 6.34754C9.06036 4.55082 6.24845 4.55082 4.52206 6.34754L1.28264 9.71894C-0.427547 11.4988 -0.427546 14.3726 1.28264 16.1525C3.00903 17.9492 5.82094 17.9492 7.54733 16.1525L8.26111 15.4096C8.5481 15.1109 8.53862 14.6361 8.23994 14.3491C7.94126 14.0622 7.46648 14.0716 7.17949 14.3703L6.46571 15.1132C5.32957 16.2956 3.5004 16.2956 2.36426 15.1132C1.21191 13.9139 1.21191 11.9575 2.36426 10.7582L5.60368 7.38682C6.73982 6.20439 8.56899 6.20439 9.70513 7.38682C9.86134 7.5494 9.99622 7.72555 10.1099 7.91174C10.3258 8.26525 10.7874 8.37681 11.1409 8.16092C11.4944 7.94503 11.606 7.48345 11.3901 7.12994C11.2206 6.85239 11.0194 6.58967 10.7868 6.34754Z" fill="#067647"/>
</g>
</g>
</svg>
